<?xml version="1.0" encoding="UTF-8"?>
<svg xmlns="http://www.w3.org/2000/svg" xmlns:xlink="http://www.w3.org/1999/xlink" viewBox="0 0 530.07 763.19">
  <defs>
    <style>
      .cls-1 {
        fill: url(#radial-gradient);
      }

      .cls-1, .cls-2, .cls-3, .cls-4, .cls-5, .cls-6, .cls-7, .cls-8, .cls-9, .cls-10, .cls-11, .cls-12, .cls-13, .cls-14, .cls-15, .cls-16, .cls-17, .cls-18, .cls-19, .cls-20, .cls-21, .cls-22, .cls-23, .cls-24, .cls-25, .cls-26 {
        mix-blend-mode: screen;
      }

      .cls-1, .cls-2, .cls-3, .cls-4, .cls-5, .cls-6, .cls-7, .cls-8, .cls-9, .cls-10, .cls-11, .cls-12, .cls-13, .cls-14, .cls-15, .cls-16, .cls-17, .cls-18, .cls-19, .cls-20, .cls-21, .cls-22, .cls-23, .cls-24, .cls-25, .cls-26, .cls-27 {
        opacity: .5;
      }

      .cls-2 {
        fill: url(#radial-gradient-2);
      }

      .cls-3 {
        fill: url(#radial-gradient-3);
      }

      .cls-4 {
        fill: url(#radial-gradient-5);
      }

      .cls-5 {
        fill: url(#radial-gradient-4);
      }

      .cls-6 {
        fill: url(#radial-gradient-9);
      }

      .cls-7 {
        fill: url(#radial-gradient-6);
      }

      .cls-8 {
        fill: url(#radial-gradient-8);
      }

      .cls-9 {
        fill: url(#radial-gradient-7);
      }

      .cls-10 {
        fill: url(#radial-gradient-25);
      }

      .cls-11 {
        fill: url(#radial-gradient-24);
      }

      .cls-12 {
        fill: url(#radial-gradient-23);
      }

      .cls-13 {
        fill: url(#radial-gradient-22);
      }

      .cls-14 {
        fill: url(#radial-gradient-26);
      }

      .cls-15 {
        fill: url(#radial-gradient-14);
      }

      .cls-16 {
        fill: url(#radial-gradient-13);
      }

      .cls-17 {
        fill: url(#radial-gradient-12);
      }

      .cls-18 {
        fill: url(#radial-gradient-15);
      }

      .cls-19 {
        fill: url(#radial-gradient-16);
      }

      .cls-20 {
        fill: url(#radial-gradient-11);
      }

      .cls-21 {
        fill: url(#radial-gradient-18);
      }

      .cls-22 {
        fill: url(#radial-gradient-17);
      }

      .cls-23 {
        fill: url(#radial-gradient-19);
      }

      .cls-24 {
        fill: url(#radial-gradient-10);
      }

      .cls-25 {
        fill: url(#radial-gradient-21);
      }

      .cls-26 {
        fill: url(#radial-gradient-20);
      }

      .cls-28 {
        stroke-linecap: round;
        stroke-linejoin: round;
        stroke-width: .5px;
      }

      .cls-28, .cls-29 {
        fill: none;
        stroke: #000;
      }

      .cls-29 {
        stroke-miterlimit: 10;
      }

      .cls-30 {
        isolation: isolate;
      }
    </style>
    <radialGradient id="radial-gradient" cx="265.03" cy="716.43" fx="265.03" fy="716.43" r="28.74" gradientUnits="userSpaceOnUse">
      <stop offset="0" stop-color="#fff"/>
      <stop offset=".19" stop-color="#bfbfbf" stop-opacity=".75"/>
      <stop offset=".41" stop-color="#7c7c7c" stop-opacity=".49"/>
      <stop offset=".61" stop-color="#464646" stop-opacity=".28"/>
      <stop offset=".78" stop-color="#202020" stop-opacity=".13"/>
      <stop offset=".91" stop-color="#080808" stop-opacity=".03"/>
      <stop offset="1" stop-color="#000" stop-opacity="0"/>
    </radialGradient>
    <radialGradient id="radial-gradient-2" cy="88.95" fy="88.95" r="28.74" xlink:href="#radial-gradient"/>
    <radialGradient id="radial-gradient-3" cx="219.31" cy="156.14" fx="219.31" fy="156.14" r="28.74" xlink:href="#radial-gradient"/>
    <radialGradient id="radial-gradient-4" cx="191.56" cy="63.72" fx="191.56" fy="63.72" r="28.74" gradientTransform="translate(76.04 -101.84) rotate(36.7)" xlink:href="#radial-gradient"/>
    <radialGradient id="radial-gradient-5" cx="167.46" cy="160.35" fx="167.46" fy="160.35" r="28.74" gradientTransform="translate(162.43 -71.44) rotate(45)" xlink:href="#radial-gradient"/>
    <radialGradient id="radial-gradient-6" cx="41.94" cy="326.19" fx="41.94" fy="326.19" r="28.74" xlink:href="#radial-gradient"/>
    <radialGradient id="radial-gradient-7" cx="28.74" cy="405.33" fx="28.74" fy="405.33" r="28.74" gradientTransform="translate(416.8 284.79) rotate(76.8)" xlink:href="#radial-gradient"/>
    <radialGradient id="radial-gradient-8" cx="77.6" cy="691.15" fx="77.6" fy="691.15" r="28.74" gradientTransform="translate(511.44 147.56) rotate(45)" xlink:href="#radial-gradient"/>
    <radialGradient id="radial-gradient-9" cx="236.25" cy="384.18" fx="236.25" fy="384.18" r="28.74" gradientTransform="translate(564.63 75.04) rotate(78.32)" xlink:href="#radial-gradient"/>
    <radialGradient id="radial-gradient-10" cx="58.02" cy="478.31" fx="58.02" fy="478.31" r="28.74" gradientTransform="translate(509.96 311.29) rotate(76.63)" xlink:href="#radial-gradient"/>
    <radialGradient id="radial-gradient-11" cx="203.55" cy="456.35" fx="203.55" fy="456.35" r="28.74" gradientTransform="translate(448.72 20.95) rotate(53.42)" xlink:href="#radial-gradient"/>
    <radialGradient id="radial-gradient-12" cx="34.5" cy="160.35" fx="34.5" fy="160.35" r="28.74" gradientTransform="translate(64.58 -.89) rotate(22.71)" xlink:href="#radial-gradient"/>
    <radialGradient id="radial-gradient-13" cx="188.11" cy="606.01" fx="188.11" fy="606.01" r="28.74" gradientTransform="translate(507.67 57.81) rotate(47.48)" xlink:href="#radial-gradient"/>
    <radialGradient id="radial-gradient-14" cx="125.98" cy="264.72" fx="125.98" fy="264.72" r="28.74" gradientTransform="translate(357.49 84.85) rotate(77.61)" xlink:href="#radial-gradient"/>
    <radialGradient id="radial-gradient-15" cx="-1755.66" cy="156.14" fx="-1755.66" fy="156.14" r="28.74" gradientTransform="translate(-1444.91) rotate(-180) scale(1 -1)" xlink:href="#radial-gradient"/>
    <radialGradient id="radial-gradient-16" cx="-1783.42" cy="63.72" fx="-1783.42" fy="63.72" r="28.74" gradientTransform="translate(-1411.42 -286.12) rotate(-170.74) scale(1 -1)" xlink:href="#radial-gradient"/>
    <radialGradient id="radial-gradient-17" cx="-1807.52" cy="160.35" fx="-1807.52" fy="160.35" r="28.74" gradientTransform="translate(-1360.54 -408.51) rotate(-166.8) scale(1 -1)" xlink:href="#radial-gradient"/>
    <radialGradient id="radial-gradient-18" cx="-1933.04" cy="326.19" fx="-1933.04" fy="326.19" r="28.74" gradientTransform="translate(-1444.91) rotate(-180) scale(1 -1)" xlink:href="#radial-gradient"/>
    <radialGradient id="radial-gradient-19" cx="-1946.23" cy="405.33" fx="-1946.23" fy="405.33" r="28.74" gradientTransform="translate(123.9 -1546.51) rotate(-112.71) scale(1 -1)" xlink:href="#radial-gradient"/>
    <radialGradient id="radial-gradient-20" cx="-1897.38" cy="691.15" fx="-1897.38" fy="691.15" r="28.74" gradientTransform="translate(-1236.95 -415.01) rotate(-166.8) scale(1 -1)" xlink:href="#radial-gradient"/>
    <radialGradient id="radial-gradient-21" cx="-1738.73" cy="384.18" fx="-1738.73" fy="384.18" r="28.74" gradientTransform="translate(-23.02 -1368.08) rotate(-112.71) scale(1 -1)" xlink:href="#radial-gradient"/>
    <radialGradient id="radial-gradient-22" cx="-1916.96" cy="478.31" fx="-1916.96" fy="478.31" r="28.74" gradientTransform="translate(-545.23 -1215.4) rotate(-135) scale(1 -1)" xlink:href="#radial-gradient"/>
    <radialGradient id="radial-gradient-23" cx="-1771.43" cy="456.35" fx="-1771.43" fy="456.35" r="28.74" gradientTransform="translate(-1293.9 -392.45) rotate(-166.8) scale(1 -1)" xlink:href="#radial-gradient"/>
    <radialGradient id="radial-gradient-24" cx="-1940.47" cy="160.35" fx="-1940.47" fy="160.35" r="28.74" gradientTransform="translate(-455.32 -1538.76) rotate(-123.96) scale(1 -1)" xlink:href="#radial-gradient"/>
    <radialGradient id="radial-gradient-25" cx="-1786.86" cy="606.01" fx="-1786.86" fy="606.01" r="28.74" gradientTransform="translate(-1324.12 -279.61) rotate(-170.74) scale(1 -1)" xlink:href="#radial-gradient"/>
    <radialGradient id="radial-gradient-26" cx="-1848.99" cy="264.72" fx="-1848.99" fy="264.72" r="28.74" gradientTransform="translate(-716.17 -1229.9) rotate(-135) scale(1 -1)" xlink:href="#radial-gradient"/>
  </defs>
  <g class="cls-30">
    <g id="Layer_2" data-name="Layer 2">
      <g id="Landing_Page" data-name="Landing Page">
        <g id="Body">
          <g id="FACE">
            <g class="cls-27">
              <g>
                <path class="cls-29" d="M500.26,192.96C484.36,3.82,293.56,.5,293.56,.5h-57.05S45.71,3.82,29.81,192.96c-2.64,31.37,.25,62.62,6.88,92.93,2.14,9.8,3.76,19.71,4.62,29.72,5.32,61.97,15.89,197.22,32.97,234.07,79.21,170.89,174.59,166.74,174.59,166.74h32.33s95.38,4.15,174.59-166.74c17.08-36.85,27.65-172.1,32.97-234.07,.86-10.01,2.48-19.91,4.62-29.72,6.63-30.31,9.52-61.56,6.88-92.93Z"/>
                <g>
                  <path class="cls-29" d="M82.81,567.52s.01,94.97-4.14,119.86c-4.15,24.89-44.8,75.49-44.8,75.49"/>
                  <path class="cls-29" d="M447.26,567.52s-.01,94.97,4.14,119.86c4.15,24.89,44.8,75.49,44.8,75.49"/>
                </g>
                <g>
                  <path class="cls-29" d="M42.03,324.1c-4.29-5.53-10.44-10.9-18.75-12.28-15.36-2.54-29.89,20.5-17.45,76.08,12.12,54.14,11.67,89.38,52.27,90.4-7.39-50.75-12.66-113.98-16.08-154.2Z"/>
                  <path class="cls-29" d="M506.78,311.83c-8.3,1.37-14.46,6.74-18.75,12.28-3.42,40.23-8.69,103.45-16.08,154.2,40.61-1.02,40.15-36.26,52.27-90.4,12.44-55.58-2.09-78.62-17.45-76.08Z"/>
                </g>
              </g>
              <g>
                <line class="cls-28" x1="265.03" y1="587.59" x2="265.03" y2="762.87"/>
                <line class="cls-28" x1="265.03" y1="316.57" x2="265.03" y2="486.21"/>
                <line class="cls-28" x1="265.03" y1="1.3" x2="265.03" y2="88.95"/>
                <line class="cls-28" x1="175.44" y1="557.55" x2="354.63" y2="557.55"/>
                <g>
                  <path class="cls-28" d="M216.92,342.29l-33.17,12.64h-33.6l-31.95-16.38,31.11-18.27h34.84l1.02,.67v.02l31.76,21.3Z"/>
                  <polyline class="cls-28" points="216.92 342.28 236.41 384.18 58.11 478.31 150.14 354.92"/>
                  <line class="cls-28" x1="126.08" y1="264.72" x2="149.31" y2="320.3"/>
                  <polyline class="cls-28" points="118.2 338.55 42.03 324.1 126.08 264.72 213.18 273.84 238.49 306.2 236.41 384.18 203.64 456.35 203.64 474.6 240.15 493.06 240.15 535.99"/>
                  <polyline class="cls-28" points="241.8 470.86 219.41 470.86 230.61 462.98 265.03 486.21"/>
                  <path class="cls-28" d="M265.03,542.21l-24.89-6.22-65.95,21.57,64.29,27.79s28.21,2.9,26.55,2.9"/>
                  <path class="cls-28" d="M203.64,456.35s-41.48,46.04-42.72,46.04-38.55,129.6-38.55,129.6l116.12-46.64"/>
                  <line class="cls-28" x1="240.15" y1="493.06" x2="265.03" y2="499.28"/>
                  <path class="cls-28" d="M265.1,316.57l-26.62-10.37,26.55-57.03-45.63-92.7L118.2,37.58l94.99,236.27,6.22-117.38s45.63-66.57,45.7-66.57S118.2,37.58,118.2,37.58l-33.18,122.78"/>
                  <polygon class="cls-28" points="126.08 264.72 167.56 160.35 34.6 160.35 126.08 264.72"/>
                  <line class="cls-28" x1="265.03" y1=".5" x2="191.65" y2="63.72"/>
                  <path class="cls-28" d="M187.05,329.27c0,10.55-8.56,19.11-19.14,19.11s-19.14-8.56-19.14-19.11c0-3.24,.8-6.3,2.24-8.98h33.12l1.02,.67v.02c1.22,2.51,1.89,5.33,1.89,8.29Z"/>
                  <path class="cls-28" d="M167.92,762.87l-90.11-71.73c-2.75,1,44.56-59.16,44.56-59.16l45.54,130.88,97.19-46.46-78.05-110.41"/>
                  <line class="cls-28" x1="77.81" y1="691.15" x2="91.24" y2="762.87"/>
                  <line class="cls-28" x1="122.37" y1="631.99" x2="82.27" y2="619.38"/>
                  <polyline class="cls-28" points="3.28 331.08 16.16 329.01 47.02 380.88 28.84 405.33 52.41 433.61"/>
                  <line class="cls-28" x1="16.16" y1="329.01" x2="9.28" y2="404.21"/>
                  <path class="cls-28" d="M28.84,405.33l-16.12,16.08s47.49,56.99,45.39,56.9l102.81,24.08,13.27,55.17,29.45-82.96"/>
                </g>
                <g>
                  <path class="cls-28" d="M313.29,342.29l33.17,12.64h33.6l31.95-16.38-31.11-18.27h-34.84l-1.02,.67v.02l-31.76,21.3Z"/>
                  <polyline class="cls-28" points="313.29 342.28 293.79 384.18 472.09 478.31 380.07 354.92"/>
                  <line class="cls-28" x1="404.13" y1="264.72" x2="380.9" y2="320.3"/>
                  <polyline class="cls-28" points="412.01 338.55 488.17 324.1 404.13 264.72 317.02 273.84 291.72 306.2 293.79 384.18 326.56 456.35 326.56 474.6 290.06 493.06 290.06 535.99"/>
                  <polyline class="cls-28" points="288.4 470.86 310.8 470.86 299.6 462.98 265.17 486.21"/>
                  <path class="cls-28" d="M265.17,542.21l24.89-6.22,65.95,21.57-64.29,27.79s-28.21,2.9-26.55,2.9"/>
                  <path class="cls-28" d="M326.56,456.35s41.48,46.04,42.72,46.04,38.55,129.6,38.55,129.6l-116.12-46.64"/>
                  <line class="cls-28" x1="290.06" y1="493.06" x2="265.17" y2="499.28"/>
                  <path class="cls-28" d="M265.1,316.57l26.62-10.37-26.55-57.03,45.63-92.7,101.21-118.88-94.99,236.27-6.22-117.38s-45.63-66.57-45.7-66.57,146.9-52.31,146.9-52.31l33.18,122.78"/>
                  <polygon class="cls-28" points="404.13 264.72 362.65 160.35 495.61 160.35 404.13 264.72"/>
                  <line class="cls-28" x1="265.17" y1=".5" x2="338.56" y2="63.72"/>
                  <path class="cls-28" d="M343.15,329.27c0,10.55,8.56,19.11,19.14,19.11s19.14-8.56,19.14-19.11c0-3.24-.8-6.3-2.24-8.98h-33.12l-1.02,.67v.02c-1.22,2.51-1.89,5.33-1.89,8.29Z"/>
                  <path class="cls-28" d="M362.29,762.87l90.11-71.73c2.75,1-44.56-59.16-44.56-59.16l-45.54,130.88-97.19-46.46,78.05-110.41"/>
                  <line class="cls-28" x1="452.4" y1="691.15" x2="438.97" y2="762.87"/>
                  <line class="cls-28" x1="407.84" y1="631.99" x2="447.94" y2="619.38"/>
                  <polyline class="cls-28" points="526.92 331.08 514.04 329.01 483.19 380.88 501.37 405.33 477.8 433.61"/>
                  <line class="cls-28" x1="514.04" y1="329.01" x2="520.93" y2="404.21"/>
                  <path class="cls-28" d="M501.37,405.33l16.12,16.08s-47.49,56.99-45.39,56.9l-102.81,24.08-13.27,55.17-29.45-82.96"/>
                </g>
                <line class="cls-28" x1="236.34" y1="384.18" x2="293.72" y2="384.18"/>
              </g>
            </g>
            <g>
              <circle class="cls-1" cx="265.03" cy="716.43" r="28.74"/>
              <circle class="cls-2" cx="265.03" cy="88.95" r="28.74"/>
            </g>
            <g>
              <g>
                <circle class="cls-3" cx="219.31" cy="156.14" r="28.74"/>
                <circle class="cls-5" cx="191.55" cy="63.72" r="28.74" transform="translate(-.11 127.1) rotate(-36.7)"/>
                <circle class="cls-4" cx="167.46" cy="160.35" r="28.74" transform="translate(-64.34 165.38) rotate(-45)"/>
                <circle class="cls-7" cx="41.94" cy="326.19" r="28.74"/>
                <circle class="cls-9" cx="28.74" cy="405.33" r="28.74" transform="translate(-372.44 340.75) rotate(-76.8)"/>
                <circle class="cls-8" cx="77.6" cy="691.15" r="28.74" transform="translate(-465.99 257.3) rotate(-45)"/>
                <circle class="cls-6" cx="236.25" cy="384.18" r="28.74" transform="translate(-187.8 537.75) rotate(-78.32)"/>
                <circle class="cls-24" cx="58.02" cy="478.31" r="28.74" transform="translate(-420.75 424.18) rotate(-76.63)"/>
                <circle class="cls-20" cx="203.55" cy="456.35" r="28.74" transform="translate(-284.22 347.86) rotate(-53.42)"/>
                <circle class="cls-17" cx="34.5" cy="160.35" r="28.74" transform="translate(-59.23 25.75) rotate(-22.71)"/>
                <circle class="cls-16" cx="188.11" cy="606.01" r="28.74" transform="translate(-385.69 335.12) rotate(-47.48)"/>
                <circle class="cls-15" cx="125.98" cy="264.72" r="28.74" transform="translate(-159.6 330.95) rotate(-77.61)"/>
              </g>
              <g>
                <circle class="cls-18" cx="310.76" cy="156.14" r="28.74"/>
                <circle class="cls-19" cx="338.51" cy="63.72" r="28.74" transform="translate(-5.84 55.3) rotate(-9.26)"/>
                <circle class="cls-22" cx="362.61" cy="160.35" r="28.74" transform="translate(-27.04 87.04) rotate(-13.2)"/>
                <circle class="cls-21" cx="488.13" cy="326.19" r="28.74"/>
                <circle class="cls-23" cx="501.32" cy="405.33" r="28.74" transform="translate(-66.12 711.31) rotate(-67.29)"/>
                <circle class="cls-26" cx="452.47" cy="691.15" r="28.74" transform="translate(-145.87 121.58) rotate(-13.2)"/>
                <circle class="cls-25" cx="293.82" cy="384.18" r="28.74" transform="translate(-174 506.91) rotate(-67.29)"/>
                <circle class="cls-13" cx="472.05" cy="478.31" r="28.74" transform="translate(-199.95 473.88) rotate(-45)"/>
                <circle class="cls-12" cx="326.52" cy="456.35" r="28.74" transform="translate(-95.58 86.62) rotate(-13.2)"/>
                <circle class="cls-11" cx="495.57" cy="160.35" r="28.74" transform="translate(85.75 481.83) rotate(-56.04)"/>
                <circle class="cls-10" cx="341.95" cy="606.01" r="28.74" transform="translate(-93.05 62.92) rotate(-9.26)"/>
                <circle class="cls-14" cx="404.08" cy="264.72" r="28.74" transform="translate(-68.83 363.26) rotate(-45)"/>
              </g>
            </g>
          </g>
        </g>
      </g>
    </g>
  </g>
</svg>