<?xml version="1.0" encoding="UTF-8"?>
<svg id="Layer_2" data-name="Layer 2" xmlns="http://www.w3.org/2000/svg" viewBox="0 0 98.9 100.72">
  <defs>
    <style>
      .cls-1 {
        fill: none;
        stroke: #000;
        stroke-miterlimit: 10;
      }
    </style>
  </defs>
  <g id="Layer_9" data-name="Layer 9">
    <g id="HEADER">
      <g>
        <path class="cls-1" d="M49.45,68.66c-10.42,0-18.86-8.19-18.86-18.3s8.45-18.3,18.86-18.3,18.86,8.19,18.86,18.3-8.45,18.3-18.86,18.3"/>
        <g>
          <path d="M49.59,86.89c-20.7,0-37.54-16.39-37.54-36.53S28.89,13.83,49.59,13.83c1.27,0,2.3,1.05,2.3,2.34s-1.03,2.34-2.3,2.34c-18.16,0-32.94,14.28-32.94,31.84s14.78,31.84,32.94,31.84c1.27,0,2.3,1.05,2.3,2.34s-1.03,2.34-2.3,2.34"/>
          <path class="cls-1" d="M63.22,79.36c-1.31,.58-2.68,1.08-4.05,1.48-1.22,.36-1.92,1.66-1.57,2.9,.29,1.03,1.21,1.7,2.21,1.7,.21,0,.42-.03,.64-.09,1.56-.46,3.11-1.02,4.6-1.68,1.17-.51,1.7-1.89,1.2-3.08-.5-1.19-1.86-1.73-3.02-1.22"/>
          <path class="cls-1" d="M84.85,52.46c-1.26-.17-2.42,.72-2.59,2.01-.36,2.71-1.08,5.36-2.15,7.89-.5,1.19,.04,2.57,1.21,3.08,.3,.13,.6,.19,.91,.19,.89,0,1.74-.53,2.12-1.42,1.23-2.92,2.06-5.98,2.48-9.11,.17-1.28-.71-2.46-1.97-2.64"/>
          <path class="cls-1" d="M70.24,25.55c2.16,1.68,4.1,3.63,5.76,5.78,.45,.59,1.13,.89,1.81,.89s1.42-.33,1.9-1.02c.59-.86,.47-2.04-.17-2.86-1.86-2.39-4.01-4.55-6.41-6.43-.91-.72-2.27-.72-3.1,.09-1.03,1.02-.9,2.69,.2,3.55"/>
          <path class="cls-1" d="M79.22,69.02c-1-.8-2.44-.63-3.23,.39-1.62,2.1-3.51,4-5.61,5.65-.93,.73-1.35,2.02-.8,3.06,.43,.82,1.23,1.26,2.04,1.26,.49,0,.98-.16,1.39-.48,2.47-1.92,4.69-4.14,6.59-6.6,.79-1.02,.61-2.49-.38-3.29"/>
          <path class="cls-1" d="M80.12,38.38c1.06,2.53,1.78,5.18,2.14,7.89,.16,1.18,1.14,2.03,2.28,2.03,.1,0,.21,0,.31-.02,1.26-.17,2.14-1.35,1.97-2.63-.41-3.13-1.25-6.19-2.47-9.11-.5-1.19-1.85-1.74-3.02-1.23-1.17,.51-1.71,1.89-1.21,3.07"/>
          <path class="cls-1" d="M65.05,17.43c-1.49-.79-3.04-1.47-4.6-2.03-1.22-.43-2.5,.43-2.85,1.93-.35,1.5,.35,3.07,1.57,3.5,1.38,.49,2.74,1.09,4.05,1.78,.3,.16,.61,.23,.91,.23,.89,0,1.74-.64,2.11-1.71,.5-1.43-.03-3.1-1.2-3.71"/>
        </g>
        <g>
          <path d="M2.5,0C1.12,0,0,1.12,0,2.5V20.37C0,21.75,1.12,22.87,2.5,22.87h0c1.38,0,2.5-1.12,2.5-2.5V7.58c0-1.38,1.12-2.5,2.5-2.5h12.48c1.38,0,2.5-1.12,2.5-2.5v-.09c0-1.38-1.12-2.5-2.5-2.5H2.5Z"/>
          <path d="M93.91,0h-14.97c-1.38,0-2.5,1.12-2.5,2.5v.09c0,1.38,1.12,2.5,2.5,2.5h12.48c1.38,0,2.5,1.12,2.5,2.5v12.8c0,1.38,1.12,2.5,2.5,2.5h0c1.38,0,2.5-1.12,2.5-2.5V5.08s0-2.59,0-2.59c0-1.38-1.12-2.5-2.5-2.5h-2.5Z"/>
          <path d="M91.41,95.63h-12.48c-1.38,0-2.5,1.12-2.5,2.5v.09c0,1.38,1.12,2.5,2.5,2.5h17.47c1.38,0,2.5-1.12,2.5-2.5v-17.88c0-1.38-1.12-2.5-2.5-2.5h0c-1.38,0-2.5,1.12-2.5,2.5v12.8c0,1.38-1.12,2.5-2.5,2.5Z"/>
          <path d="M2.5,77.85h0c-1.38,0-2.5,1.12-2.5,2.5v17.88c0,1.38,1.12,2.5,2.5,2.5H19.96c1.38,0,2.5-1.12,2.5-2.5v-.09c0-1.38-1.12-2.5-2.5-2.5H7.49c-1.38,0-2.5-1.12-2.5-2.5v-12.8c0-1.38-1.12-2.5-2.5-2.5Z"/>
        </g>
        <circle cx="49.45" cy="50.36" r="8.86"/>
      </g>
    </g>
  </g>
</svg>